<svg width="790" height="80" viewBox="0 0 790 80" fill="none" xmlns="http://www.w3.org/2000/svg">
<rect width="790" height="80" rx="4" fill="#E9F0F8"/>
<g clip-path="url(#clip0_1_398)">
<path d="M744 45L748 49L752 45" stroke="#0275B1" stroke-width="2" stroke-linecap="round" stroke-linejoin="round"/>
<path d="M748 40V49" stroke="#0275B1" stroke-width="2" stroke-linecap="round" stroke-linejoin="round"/>
<path d="M756.88 46.0901C757.749 45.4787 758.401 44.6062 758.741 43.5992C759.081 42.5922 759.091 41.5031 758.77 40.4899C758.449 39.4767 757.814 38.5921 756.956 37.9646C756.098 37.3371 755.063 36.9992 754 37.0001H752.74C752.439 35.8279 751.876 34.7393 751.094 33.8161C750.312 32.893 749.33 32.1593 748.223 31.6704C747.116 31.1815 745.913 30.9501 744.703 30.9936C743.494 31.0371 742.31 31.3543 741.241 31.9215C740.173 32.4886 739.246 33.2909 738.532 34.2679C737.818 35.2449 737.335 36.3711 737.119 37.5618C736.903 38.7525 736.961 39.9767 737.286 41.1421C737.612 42.3075 738.198 43.3838 739 44.2901" stroke="#0275B1" stroke-width="2" stroke-linecap="round" stroke-linejoin="round"/>
</g>
<path d="M78.092 25.474V23.864H79.912V25.474H78.092ZM78.162 34V26.608H79.856V34H78.162ZM90.6239 32.684C89.6532 33.6733 88.4259 34.168 86.9419 34.168C85.4579 34.168 84.2352 33.678 83.2739 32.698C82.3125 31.718 81.8319 30.5187 81.8319 29.1C81.8319 27.7 82.3172 26.5053 83.2879 25.516C84.2585 24.5267 85.4859 24.032 86.9699 24.032C88.4539 24.032 89.6765 24.522 90.6379 25.502C91.5992 26.482 92.0799 27.6813 92.0799 29.1C92.0799 30.5 91.5945 31.6947 90.6239 32.684ZM84.5759 31.578C85.2105 32.25 86.0085 32.586 86.9699 32.586C87.9312 32.586 88.7199 32.25 89.3359 31.578C89.9612 30.906 90.2739 30.08 90.2739 29.1C90.2739 28.1293 89.9565 27.308 89.3219 26.636C88.6965 25.9547 87.9032 25.614 86.9419 25.614C85.9805 25.614 85.1872 25.95 84.5619 26.622C83.9459 27.294 83.6379 28.12 83.6379 29.1C83.6379 30.0707 83.9505 30.8967 84.5759 31.578ZM97.5904 34.14C96.0317 34.14 94.6691 33.6173 93.5024 32.572L94.5384 31.34C95.5184 32.1893 96.5497 32.614 97.6324 32.614C98.1644 32.614 98.5844 32.502 98.8924 32.278C99.2097 32.0447 99.3684 31.7367 99.3684 31.354C99.3684 30.99 99.2191 30.7007 98.9204 30.486C98.6217 30.262 98.0337 30.0473 97.1564 29.842C96.0177 29.5713 95.1871 29.2307 94.6644 28.82C94.1511 28.4 93.8944 27.7607 93.8944 26.902C93.8944 26.062 94.2071 25.3807 94.8324 24.858C95.4577 24.326 96.2604 24.06 97.2404 24.06C98.5844 24.06 99.7697 24.4707 100.796 25.292L99.8724 26.594C98.9671 25.922 98.0804 25.586 97.2124 25.586C96.7177 25.586 96.3257 25.698 96.0364 25.922C95.7564 26.146 95.6164 26.4307 95.6164 26.776C95.6164 27.1587 95.7704 27.4573 96.0784 27.672C96.3957 27.8773 97.0164 28.092 97.9404 28.316C99.0231 28.5773 99.8164 28.9273 100.32 29.366C100.834 29.8047 101.09 30.4207 101.09 31.214C101.09 32.1193 100.768 32.8333 100.124 33.356C99.4804 33.8787 98.6357 34.14 97.5904 34.14ZM108.545 34V25.88L106.781 26.37L106.417 24.97L109.049 24.13H110.253V34H108.545ZM114.096 34V25.88L112.332 26.37L111.968 24.97L114.6 24.13H115.804V34H114.096ZM125.706 36.268C124.474 36.268 123.372 35.974 122.402 35.386L123.032 34.112C123.872 34.6347 124.749 34.896 125.664 34.896C126.42 34.896 126.998 34.7 127.4 34.308C127.801 33.9253 128.002 33.3653 128.002 32.628V32.054C127.302 32.9593 126.434 33.412 125.398 33.412C124.483 33.412 123.694 33.0947 123.032 32.46C122.369 31.8253 122.038 30.9807 122.038 29.926C122.038 28.8807 122.369 28.0407 123.032 27.406C123.704 26.7713 124.492 26.454 125.398 26.454C126.424 26.454 127.288 26.874 127.988 27.714V26.608H129.682V32.488C129.682 33.72 129.369 34.6487 128.744 35.274C128.081 35.9367 127.068 36.268 125.706 36.268ZM125.846 31.984C126.443 31.984 126.952 31.7927 127.372 31.41C127.801 31.018 128.016 30.5233 128.016 29.926C128.016 29.3287 127.801 28.8387 127.372 28.456C126.952 28.0733 126.443 27.882 125.846 27.882C125.248 27.882 124.749 28.0733 124.348 28.456C123.946 28.8293 123.746 29.324 123.746 29.94C123.746 30.5373 123.946 31.0273 124.348 31.41C124.758 31.7927 125.258 31.984 125.846 31.984ZM134.342 34.154C133.521 34.154 132.877 33.8973 132.41 33.384C131.944 32.8707 131.71 32.18 131.71 31.312V26.608H133.404V30.808C133.404 31.3867 133.54 31.8347 133.81 32.152C134.09 32.46 134.482 32.614 134.986 32.614C135.481 32.614 135.882 32.4507 136.19 32.124C136.498 31.7973 136.652 31.3493 136.652 30.78V26.608H138.346V34H136.652V32.852C136.064 33.72 135.294 34.154 134.342 34.154ZM140.504 25.474V23.864H142.324V25.474H140.504ZM140.574 34V26.608H142.268V34H140.574ZM147.534 34.154C146.61 34.154 145.807 33.8087 145.126 33.118C144.445 32.418 144.104 31.4753 144.104 30.29C144.104 29.114 144.44 28.1807 145.112 27.49C145.793 26.7993 146.601 26.454 147.534 26.454C148.542 26.454 149.382 26.888 150.054 27.756V23.78H151.748V34H150.054V32.768C149.401 33.692 148.561 34.154 147.534 34.154ZM146.428 32.026C146.848 32.4647 147.352 32.684 147.94 32.684C148.528 32.684 149.032 32.46 149.452 32.012C149.872 31.564 150.082 30.99 150.082 30.29C150.082 29.5993 149.872 29.0347 149.452 28.596C149.032 28.148 148.528 27.924 147.94 27.924C147.343 27.924 146.839 28.1433 146.428 28.582C146.017 29.0113 145.812 29.59 145.812 30.318C145.812 31.018 146.017 31.5873 146.428 32.026ZM157.249 34.168C156.166 34.168 155.261 33.8087 154.533 33.09C153.814 32.3713 153.455 31.4427 153.455 30.304C153.455 29.2307 153.796 28.3207 154.477 27.574C155.158 26.8273 156.022 26.454 157.067 26.454C158.187 26.454 159.055 26.8367 159.671 27.602C160.296 28.358 160.609 29.3007 160.609 30.43C160.609 30.6353 160.6 30.794 160.581 30.906H155.149C155.242 31.494 155.48 31.956 155.863 32.292C156.246 32.6187 156.717 32.782 157.277 32.782C158.005 32.782 158.672 32.488 159.279 31.9L160.273 32.782C159.508 33.706 158.5 34.168 157.249 34.168ZM155.135 29.786H158.929C158.873 29.2167 158.682 28.75 158.355 28.386C158.028 28.022 157.594 27.84 157.053 27.84C156.54 27.84 156.11 28.022 155.765 28.386C155.42 28.7407 155.21 29.2073 155.135 29.786ZM162.408 34V23.78H164.102V34H162.408ZM166.344 25.474V23.864H168.164V25.474H166.344ZM166.414 34V26.608H168.108V34H166.414ZM170.322 34V26.608H172.016V27.756C172.604 26.888 173.374 26.454 174.326 26.454C175.147 26.454 175.791 26.7107 176.258 27.224C176.724 27.7373 176.958 28.428 176.958 29.296V34H175.264V29.8C175.264 29.2213 175.124 28.778 174.844 28.47C174.573 28.1527 174.186 27.994 173.682 27.994C173.187 27.994 172.786 28.1573 172.478 28.484C172.17 28.8107 172.016 29.2587 172.016 29.828V34H170.322ZM182.391 34.168C181.309 34.168 180.403 33.8087 179.675 33.09C178.957 32.3713 178.597 31.4427 178.597 30.304C178.597 29.2307 178.938 28.3207 179.619 27.574C180.301 26.8273 181.164 26.454 182.209 26.454C183.329 26.454 184.197 26.8367 184.813 27.602C185.439 28.358 185.751 29.3007 185.751 30.43C185.751 30.6353 185.742 30.794 185.723 30.906H180.291C180.385 31.494 180.623 31.956 181.005 32.292C181.388 32.6187 181.859 32.782 182.419 32.782C183.147 32.782 183.815 32.488 184.421 31.9L185.415 32.782C184.65 33.706 183.642 34.168 182.391 34.168ZM180.277 29.786H184.071C184.015 29.2167 183.824 28.75 183.497 28.386C183.171 28.022 182.737 27.84 182.195 27.84C181.682 27.84 181.253 28.022 180.907 28.386C180.562 28.7407 180.352 29.2073 180.277 29.786ZM189.987 34.14C188.829 34.14 187.784 33.7713 186.851 33.034L187.607 31.886C188.409 32.4927 189.217 32.796 190.029 32.796C190.393 32.796 190.673 32.726 190.869 32.586C191.074 32.4367 191.177 32.2313 191.177 31.97C191.177 31.8393 191.139 31.7273 191.065 31.634C190.999 31.5313 190.878 31.438 190.701 31.354C190.523 31.27 190.374 31.2093 190.253 31.172C190.131 31.1347 189.931 31.074 189.651 30.99L189.525 30.948C189.263 30.8733 189.039 30.8033 188.853 30.738C188.675 30.6633 188.475 30.5653 188.251 30.444C188.027 30.3227 187.845 30.192 187.705 30.052C187.565 29.9027 187.448 29.716 187.355 29.492C187.261 29.268 187.215 29.016 187.215 28.736C187.215 28.0547 187.462 27.5087 187.957 27.098C188.461 26.6873 189.091 26.482 189.847 26.482C190.808 26.482 191.713 26.762 192.563 27.322L191.891 28.526C191.125 28.0593 190.43 27.826 189.805 27.826C189.478 27.826 189.221 27.896 189.035 28.036C188.857 28.176 188.769 28.3627 188.769 28.596C188.769 28.7547 188.848 28.8993 189.007 29.03C189.175 29.1607 189.338 29.2587 189.497 29.324C189.665 29.38 189.931 29.4687 190.295 29.59C190.313 29.5993 190.337 29.6087 190.365 29.618C190.393 29.6273 190.416 29.632 190.435 29.632C190.761 29.7347 191.037 29.8373 191.261 29.94C191.485 30.0333 191.718 30.164 191.961 30.332C192.213 30.5 192.404 30.71 192.535 30.962C192.665 31.2047 192.731 31.4893 192.731 31.816C192.731 32.5627 192.474 33.1367 191.961 33.538C191.447 33.9393 190.789 34.14 189.987 34.14ZM199.028 34V28.064H198.09V26.65H199.028V26.118C199.028 25.2967 199.229 24.6853 199.63 24.284C200.022 23.892 200.577 23.696 201.296 23.696C201.772 23.696 202.229 23.7613 202.668 23.892V25.32C202.304 25.1987 201.973 25.138 201.674 25.138C201.021 25.138 200.694 25.5113 200.694 26.258V26.664H202.654V28.064H200.722V34H199.028ZM207.291 34.168C206.171 34.168 205.238 33.7947 204.491 33.048C203.744 32.3013 203.371 31.3913 203.371 30.318C203.371 29.2447 203.749 28.3347 204.505 27.588C205.261 26.832 206.199 26.454 207.319 26.454C208.439 26.454 209.372 26.8273 210.119 27.574C210.875 28.3207 211.253 29.2353 211.253 30.318C211.253 31.382 210.875 32.292 210.119 33.048C209.363 33.7947 208.42 34.168 207.291 34.168ZM207.319 32.698C207.991 32.698 208.532 32.4693 208.943 32.012C209.354 31.5547 209.559 30.99 209.559 30.318C209.559 29.6553 209.344 29.0953 208.915 28.638C208.486 28.1713 207.944 27.938 207.291 27.938C206.628 27.938 206.092 28.1667 205.681 28.624C205.27 29.0813 205.065 29.646 205.065 30.318C205.065 30.9713 205.28 31.5313 205.709 31.998C206.138 32.4647 206.675 32.698 207.319 32.698ZM212.978 34V26.608H214.672V28.274C215.195 27.014 216.067 26.412 217.29 26.468V28.26H217.192C216.427 28.26 215.815 28.512 215.358 29.016C214.901 29.5107 214.672 30.234 214.672 31.186V34H212.978ZM226.011 34.154C225.087 34.154 224.284 33.8087 223.603 33.118C222.921 32.418 222.581 31.4753 222.581 30.29C222.581 29.114 222.917 28.1807 223.589 27.49C224.27 26.7993 225.077 26.454 226.011 26.454C227.019 26.454 227.859 26.888 228.531 27.756V23.78H230.225V34H228.531V32.768C227.877 33.692 227.037 34.154 226.011 34.154ZM224.905 32.026C225.325 32.4647 225.829 32.684 226.417 32.684C227.005 32.684 227.509 32.46 227.929 32.012C228.349 31.564 228.559 30.99 228.559 30.29C228.559 29.5993 228.349 29.0347 227.929 28.596C227.509 28.148 227.005 27.924 226.417 27.924C225.819 27.924 225.315 28.1433 224.905 28.582C224.494 29.0113 224.289 29.59 224.289 30.318C224.289 31.018 224.494 31.5873 224.905 32.026ZM235.725 34.168C234.643 34.168 233.737 33.8087 233.009 33.09C232.291 32.3713 231.931 31.4427 231.931 30.304C231.931 29.2307 232.272 28.3207 232.953 27.574C233.635 26.8273 234.498 26.454 235.543 26.454C236.663 26.454 237.531 26.8367 238.147 27.602C238.773 28.358 239.085 29.3007 239.085 30.43C239.085 30.6353 239.076 30.794 239.057 30.906H233.625C233.719 31.494 233.957 31.956 234.339 32.292C234.722 32.6187 235.193 32.782 235.753 32.782C236.481 32.782 237.149 32.488 237.755 31.9L238.749 32.782C237.984 33.706 236.976 34.168 235.725 34.168ZM233.611 29.786H237.405C237.349 29.2167 237.158 28.75 236.831 28.386C236.505 28.022 236.071 27.84 235.529 27.84C235.016 27.84 234.587 28.022 234.241 28.386C233.896 28.7407 233.686 29.2073 233.611 29.786ZM242.769 34.056L239.731 26.608H241.551L243.539 32.04L245.541 26.608H247.319L244.295 34.056H242.769ZM251.722 34.168C250.639 34.168 249.734 33.8087 249.006 33.09C248.287 32.3713 247.928 31.4427 247.928 30.304C247.928 29.2307 248.268 28.3207 248.95 27.574C249.631 26.8273 250.494 26.454 251.54 26.454C252.66 26.454 253.528 26.8367 254.144 27.602C254.769 28.358 255.082 29.3007 255.082 30.43C255.082 30.6353 255.072 30.794 255.054 30.906H249.622C249.715 31.494 249.953 31.956 250.336 32.292C250.718 32.6187 251.19 32.782 251.75 32.782C252.478 32.782 253.145 32.488 253.752 31.9L254.746 32.782C253.98 33.706 252.972 34.168 251.722 34.168ZM249.608 29.786H253.402C253.346 29.2167 253.154 28.75 252.828 28.386C252.501 28.022 252.067 27.84 251.526 27.84C251.012 27.84 250.583 28.022 250.238 28.386C249.892 28.7407 249.682 29.2073 249.608 29.786ZM256.881 34V23.78H258.575V34H256.881ZM264.303 34.168C263.183 34.168 262.249 33.7947 261.503 33.048C260.756 32.3013 260.383 31.3913 260.383 30.318C260.383 29.2447 260.761 28.3347 261.517 27.588C262.273 26.832 263.211 26.454 264.331 26.454C265.451 26.454 266.384 26.8273 267.131 27.574C267.887 28.3207 268.265 29.2353 268.265 30.318C268.265 31.382 267.887 32.292 267.131 33.048C266.375 33.7947 265.432 34.168 264.303 34.168ZM264.331 32.698C265.003 32.698 265.544 32.4693 265.955 32.012C266.365 31.5547 266.571 30.99 266.571 30.318C266.571 29.6553 266.356 29.0953 265.927 28.638C265.497 28.1713 264.956 27.938 264.303 27.938C263.64 27.938 263.103 28.1667 262.693 28.624C262.282 29.0813 262.077 29.646 262.077 30.318C262.077 30.9713 262.291 31.5313 262.721 31.998C263.15 32.4647 263.687 32.698 264.331 32.698ZM269.99 36.24V26.608H271.684V27.84C272.337 26.916 273.172 26.454 274.19 26.454C275.123 26.454 275.93 26.804 276.612 27.504C277.293 28.1947 277.634 29.1327 277.634 30.318C277.634 31.4847 277.293 32.418 276.612 33.118C275.93 33.8087 275.123 34.154 274.19 34.154C273.172 34.154 272.337 33.72 271.684 32.852V36.24H269.99ZM273.798 32.684C274.395 32.684 274.894 32.4647 275.296 32.026C275.706 31.5873 275.912 31.0087 275.912 30.29C275.912 29.59 275.706 29.0207 275.296 28.582C274.885 28.1433 274.386 27.924 273.798 27.924C273.21 27.924 272.701 28.148 272.272 28.596C271.852 29.044 271.642 29.618 271.642 30.318C271.642 31.0087 271.852 31.578 272.272 32.026C272.701 32.4647 273.21 32.684 273.798 32.684ZM282.757 34.168C281.674 34.168 280.769 33.8087 280.041 33.09C279.322 32.3713 278.963 31.4427 278.963 30.304C278.963 29.2307 279.303 28.3207 279.985 27.574C280.666 26.8273 281.529 26.454 282.575 26.454C283.695 26.454 284.563 26.8367 285.179 27.602C285.804 28.358 286.117 29.3007 286.117 30.43C286.117 30.6353 286.107 30.794 286.089 30.906H280.657C280.75 31.494 280.988 31.956 281.371 32.292C281.753 32.6187 282.225 32.782 282.785 32.782C283.513 32.782 284.18 32.488 284.787 31.9L285.781 32.782C285.015 33.706 284.007 34.168 282.757 34.168ZM280.643 29.786H284.437C284.381 29.2167 284.189 28.75 283.863 28.386C283.536 28.022 283.102 27.84 282.561 27.84C282.047 27.84 281.618 28.022 281.273 28.386C280.927 28.7407 280.717 29.2073 280.643 29.786ZM287.818 34V26.608H289.512V28.274C290.035 27.014 290.907 26.412 292.13 26.468V28.26H292.032C291.267 28.26 290.655 28.512 290.198 29.016C289.741 29.5107 289.512 30.234 289.512 31.186V34H287.818ZM296.135 34.14C294.978 34.14 293.932 33.7713 292.999 33.034L293.755 31.886C294.558 32.4927 295.365 32.796 296.177 32.796C296.541 32.796 296.821 32.726 297.017 32.586C297.222 32.4367 297.325 32.2313 297.325 31.97C297.325 31.8393 297.288 31.7273 297.213 31.634C297.148 31.5313 297.026 31.438 296.849 31.354C296.672 31.27 296.522 31.2093 296.401 31.172C296.28 31.1347 296.079 31.074 295.799 30.99L295.673 30.948C295.412 30.8733 295.188 30.8033 295.001 30.738C294.824 30.6633 294.623 30.5653 294.399 30.444C294.175 30.3227 293.993 30.192 293.853 30.052C293.713 29.9027 293.596 29.716 293.503 29.492C293.41 29.268 293.363 29.016 293.363 28.736C293.363 28.0547 293.61 27.5087 294.105 27.098C294.609 26.6873 295.239 26.482 295.995 26.482C296.956 26.482 297.862 26.762 298.711 27.322L298.039 28.526C297.274 28.0593 296.578 27.826 295.953 27.826C295.626 27.826 295.37 27.896 295.183 28.036C295.006 28.176 294.917 28.3627 294.917 28.596C294.917 28.7547 294.996 28.8993 295.155 29.03C295.323 29.1607 295.486 29.2587 295.645 29.324C295.813 29.38 296.079 29.4687 296.443 29.59C296.462 29.5993 296.485 29.6087 296.513 29.618C296.541 29.6273 296.564 29.632 296.583 29.632C296.91 29.7347 297.185 29.8373 297.409 29.94C297.633 30.0333 297.866 30.164 298.109 30.332C298.361 30.5 298.552 30.71 298.683 30.962C298.814 31.2047 298.879 31.4893 298.879 31.816C298.879 32.5627 298.622 33.1367 298.109 33.538C297.596 33.9393 296.938 34.14 296.135 34.14Z" fill="#181818"/>
<path d="M78.04 56V49H80.58C81.36 49 81.9867 49.1933 82.46 49.58C82.94 49.96 83.18 50.4867 83.18 51.16C83.18 51.8667 82.9167 52.4167 82.39 52.81C81.87 53.1967 81.2233 53.39 80.45 53.39H78.56V56H78.04ZM78.56 52.91H80.48C81.1333 52.91 81.66 52.7533 82.06 52.44C82.46 52.12 82.66 51.6967 82.66 51.17C82.66 50.63 82.4667 50.2133 82.08 49.92C81.7 49.6267 81.1867 49.48 80.54 49.48H78.56V52.91ZM84.7197 56V49H87.0497C88.143 49 89.0364 49.3333 89.7297 50C90.423 50.66 90.7697 51.4933 90.7697 52.5C90.7697 53.5 90.4197 54.3333 89.7197 55C89.0264 55.6667 88.1364 56 87.0497 56H84.7197ZM85.2397 55.52H87.0497C88.003 55.52 88.7697 55.2333 89.3497 54.66C89.9364 54.0867 90.2297 53.3667 90.2297 52.5C90.2297 51.6467 89.9364 50.93 89.3497 50.35C88.7697 49.77 88.003 49.48 87.0497 49.48H85.2397V55.52ZM92.542 56V49H97.472V49.48H93.062V52.35H97.022V52.83H93.062V56H92.542ZM102.293 56V51.35H101.553V50.9H102.293V50.4C102.293 49.8133 102.443 49.37 102.743 49.07C103.009 48.8033 103.366 48.67 103.813 48.67C104.086 48.67 104.339 48.71 104.573 48.79V49.25C104.293 49.1633 104.039 49.12 103.813 49.12C103.126 49.12 102.783 49.55 102.783 50.41V50.9H104.563V51.35H102.783V56H102.293ZM105.683 56V50.9H106.173V56H105.683ZM105.623 49.57V48.9H106.233V49.57H105.623ZM108.176 56V48.7H108.666V56H108.176ZM112.746 56.12C112.059 56.12 111.469 55.87 110.976 55.37C110.489 54.87 110.246 54.2267 110.246 53.44C110.246 52.6933 110.476 52.0633 110.936 51.55C111.403 51.0367 111.979 50.78 112.666 50.78C113.366 50.78 113.929 51.0333 114.356 51.54C114.789 52.0467 115.006 52.6833 115.006 53.45C115.006 53.53 115.003 53.5967 114.996 53.65H110.766C110.813 54.2633 111.026 54.7533 111.406 55.12C111.793 55.48 112.246 55.66 112.766 55.66C113.433 55.66 114.016 55.3933 114.516 54.86L114.856 55.16C114.263 55.8 113.559 56.12 112.746 56.12ZM110.766 53.21H114.476C114.436 52.65 114.259 52.18 113.946 51.8C113.633 51.42 113.199 51.23 112.646 51.23C112.146 51.23 111.719 51.42 111.366 51.8C111.013 52.1733 110.813 52.6433 110.766 53.21ZM116.058 57.07L115.938 56.82C116.312 56.6333 116.498 56.39 116.498 56.09V56H116.228V55.15H116.888V55.89C116.888 56.2033 116.825 56.45 116.698 56.63C116.572 56.81 116.358 56.9567 116.058 57.07ZM121.191 56V55.61L123.801 53.25C124.381 52.7233 124.784 52.2867 125.011 51.94C125.238 51.5867 125.351 51.2267 125.351 50.86C125.351 50.42 125.194 50.06 124.881 49.78C124.574 49.5 124.204 49.36 123.771 49.36C123.344 49.36 122.971 49.4667 122.651 49.68C122.338 49.8933 122.028 50.22 121.721 50.66L121.331 50.4C121.664 49.8933 122.018 49.5167 122.391 49.27C122.764 49.0233 123.241 48.9 123.821 48.9C124.414 48.9 124.908 49.0867 125.301 49.46C125.701 49.8267 125.901 50.2867 125.901 50.84C125.901 51.3 125.771 51.72 125.511 52.1C125.258 52.48 124.804 52.9667 124.151 53.56L122.011 55.5H125.971V56H121.191ZM130.757 56V54.29H126.967L126.787 53.9L130.787 48.95H131.257V53.84H132.397V54.29H131.257V56H130.757ZM127.417 53.84H130.757V49.7L127.417 53.84ZM135.967 56.12C135.514 56.12 135.074 56.0167 134.647 55.81C134.221 55.5967 133.844 55.3233 133.517 54.99L133.887 54.62C134.574 55.3067 135.274 55.65 135.987 55.65C136.534 55.65 136.984 55.48 137.337 55.14C137.691 54.8 137.867 54.3767 137.867 53.87C137.867 53.3833 137.687 52.9867 137.327 52.68C136.974 52.3667 136.514 52.21 135.947 52.21C135.434 52.21 134.907 52.3567 134.367 52.65L133.967 52.39L134.167 49H138.097V49.5H134.627L134.457 52.12C134.977 51.8667 135.494 51.74 136.007 51.74C136.694 51.74 137.264 51.94 137.717 52.34C138.177 52.7333 138.407 53.2433 138.407 53.87C138.407 54.53 138.177 55.07 137.717 55.49C137.257 55.91 136.674 56.12 135.967 56.12ZM142.93 56V48.7H143.42V54.17L146.58 50.9H147.23L145 53.16L147.3 56H146.68L144.66 53.51L143.42 54.76V56H142.93ZM151.116 56.12C150.249 56.12 149.549 55.7133 149.016 54.9V56H148.526V48.7H149.016V52.04C149.569 51.2 150.269 50.78 151.116 50.78C151.769 50.78 152.346 51.0267 152.846 51.52C153.346 52.0067 153.596 52.65 153.596 53.45C153.596 54.2433 153.346 54.8867 152.846 55.38C152.346 55.8733 151.769 56.12 151.116 56.12ZM151.066 55.65C151.639 55.65 152.116 55.4533 152.496 55.06C152.876 54.66 153.066 54.1233 153.066 53.45C153.066 52.7967 152.869 52.2667 152.476 51.86C152.089 51.4533 151.619 51.25 151.066 51.25C150.512 51.25 150.026 51.46 149.606 51.88C149.192 52.2933 148.986 52.82 148.986 53.46C148.986 54.0933 149.192 54.6167 149.606 55.03C150.026 55.4433 150.512 55.65 151.066 55.65Z" fill="#181818"/>
<rect x="20" y="19" width="42" height="42" rx="21" fill="url(#paint0_linear_1_398)"/>
<path d="M43.0001 30.0001H35.0001C34.4697 30.0001 33.961 30.2108 33.5859 30.5859C33.2108 30.961 33.0001 31.4697 33.0001 32.0001V48.0001C33.0001 48.5306 33.2108 49.0393 33.5859 49.4143C33.961 49.7894 34.4697 50.0001 35.0001 50.0001H47.0001C47.5306 50.0001 48.0393 49.7894 48.4143 49.4143C48.7894 49.0393 49.0001 48.5306 49.0001 48.0001V36.0001L43.0001 30.0001Z" stroke="white" stroke-linecap="round" stroke-linejoin="round"/>
<path d="M42.9999 30.0001V36.0001H48.9999" stroke="white" stroke-linecap="round" stroke-linejoin="round"/>
<path d="M44.9999 40.9999H36.9999" stroke="white" stroke-linecap="round" stroke-linejoin="round"/>
<path d="M44.9999 45.0001H36.9999" stroke="white" stroke-linecap="round" stroke-linejoin="round"/>
<path d="M38.9999 37H37.9999H36.9999" stroke="white" stroke-linecap="round" stroke-linejoin="round"/>
<defs>
<linearGradient id="paint0_linear_1_398" x1="41" y1="19" x2="41" y2="61" gradientUnits="userSpaceOnUse">
<stop stop-color="#0077B5"/>
<stop offset="1" stop-color="#0E6795"/>
</linearGradient>
<clipPath id="clip0_1_398">
<rect width="24" height="24" fill="white" transform="translate(736 28)"/>
</clipPath>
</defs>
</svg>
