<svg width="790" height="80" viewBox="0 0 790 80" fill="none" xmlns="http://www.w3.org/2000/svg">
<rect width="790" height="80" rx="4" fill="#E9F0F8"/>
<g clip-path="url(#clip0_1_382)">
<path d="M744 45L748 49L752 45" stroke="#0275B1" stroke-width="2" stroke-linecap="round" stroke-linejoin="round"/>
<path d="M748 40V49" stroke="#0275B1" stroke-width="2" stroke-linecap="round" stroke-linejoin="round"/>
<path d="M756.88 46.0901C757.749 45.4787 758.401 44.6062 758.741 43.5992C759.081 42.5922 759.091 41.5031 758.77 40.4899C758.449 39.4767 757.814 38.5921 756.956 37.9646C756.098 37.3371 755.063 36.9992 754 37.0001H752.74C752.439 35.8279 751.876 34.7393 751.094 33.8161C750.312 32.893 749.33 32.1593 748.223 31.6704C747.116 31.1815 745.913 30.9501 744.703 30.9936C743.494 31.0371 742.31 31.3543 741.241 31.9215C740.173 32.4886 739.246 33.2909 738.532 34.2679C737.818 35.2449 737.335 36.3711 737.119 37.5618C736.903 38.7525 736.961 39.9767 737.286 41.1421C737.612 42.3075 738.198 43.3838 739 44.2901" stroke="#0275B1" stroke-width="2" stroke-linecap="round" stroke-linejoin="round"/>
</g>
<path d="M78.092 25.474V23.864H79.912V25.474H78.092ZM78.162 34V26.608H79.856V34H78.162ZM90.6239 32.684C89.6532 33.6733 88.4259 34.168 86.9419 34.168C85.4579 34.168 84.2352 33.678 83.2739 32.698C82.3125 31.718 81.8319 30.5187 81.8319 29.1C81.8319 27.7 82.3172 26.5053 83.2879 25.516C84.2585 24.5267 85.4859 24.032 86.9699 24.032C88.4539 24.032 89.6765 24.522 90.6379 25.502C91.5992 26.482 92.0799 27.6813 92.0799 29.1C92.0799 30.5 91.5945 31.6947 90.6239 32.684ZM84.5759 31.578C85.2105 32.25 86.0085 32.586 86.9699 32.586C87.9312 32.586 88.7199 32.25 89.3359 31.578C89.9612 30.906 90.2739 30.08 90.2739 29.1C90.2739 28.1293 89.9565 27.308 89.3219 26.636C88.6965 25.9547 87.9032 25.614 86.9419 25.614C85.9805 25.614 85.1872 25.95 84.5619 26.622C83.9459 27.294 83.6379 28.12 83.6379 29.1C83.6379 30.0707 83.9505 30.8967 84.5759 31.578ZM97.5904 34.14C96.0317 34.14 94.6691 33.6173 93.5024 32.572L94.5384 31.34C95.5184 32.1893 96.5497 32.614 97.6324 32.614C98.1644 32.614 98.5844 32.502 98.8924 32.278C99.2097 32.0447 99.3684 31.7367 99.3684 31.354C99.3684 30.99 99.2191 30.7007 98.9204 30.486C98.6217 30.262 98.0337 30.0473 97.1564 29.842C96.0177 29.5713 95.1871 29.2307 94.6644 28.82C94.1511 28.4 93.8944 27.7607 93.8944 26.902C93.8944 26.062 94.2071 25.3807 94.8324 24.858C95.4577 24.326 96.2604 24.06 97.2404 24.06C98.5844 24.06 99.7697 24.4707 100.796 25.292L99.8724 26.594C98.9671 25.922 98.0804 25.586 97.2124 25.586C96.7177 25.586 96.3257 25.698 96.0364 25.922C95.7564 26.146 95.6164 26.4307 95.6164 26.776C95.6164 27.1587 95.7704 27.4573 96.0784 27.672C96.3957 27.8773 97.0164 28.092 97.9404 28.316C99.0231 28.5773 99.8164 28.9273 100.32 29.366C100.834 29.8047 101.09 30.4207 101.09 31.214C101.09 32.1193 100.768 32.8333 100.124 33.356C99.4804 33.8787 98.6357 34.14 97.5904 34.14ZM108.545 34V25.88L106.781 26.37L106.417 24.97L109.049 24.13H110.253V34H108.545ZM114.096 34V25.88L112.332 26.37L111.968 24.97L114.6 24.13H115.804V34H114.096ZM125.706 36.268C124.474 36.268 123.372 35.974 122.402 35.386L123.032 34.112C123.872 34.6347 124.749 34.896 125.664 34.896C126.42 34.896 126.998 34.7 127.4 34.308C127.801 33.9253 128.002 33.3653 128.002 32.628V32.054C127.302 32.9593 126.434 33.412 125.398 33.412C124.483 33.412 123.694 33.0947 123.032 32.46C122.369 31.8253 122.038 30.9807 122.038 29.926C122.038 28.8807 122.369 28.0407 123.032 27.406C123.704 26.7713 124.492 26.454 125.398 26.454C126.424 26.454 127.288 26.874 127.988 27.714V26.608H129.682V32.488C129.682 33.72 129.369 34.6487 128.744 35.274C128.081 35.9367 127.068 36.268 125.706 36.268ZM125.846 31.984C126.443 31.984 126.952 31.7927 127.372 31.41C127.801 31.018 128.016 30.5233 128.016 29.926C128.016 29.3287 127.801 28.8387 127.372 28.456C126.952 28.0733 126.443 27.882 125.846 27.882C125.248 27.882 124.749 28.0733 124.348 28.456C123.946 28.8293 123.746 29.324 123.746 29.94C123.746 30.5373 123.946 31.0273 124.348 31.41C124.758 31.7927 125.258 31.984 125.846 31.984ZM134.342 34.154C133.521 34.154 132.877 33.8973 132.41 33.384C131.944 32.8707 131.71 32.18 131.71 31.312V26.608H133.404V30.808C133.404 31.3867 133.54 31.8347 133.81 32.152C134.09 32.46 134.482 32.614 134.986 32.614C135.481 32.614 135.882 32.4507 136.19 32.124C136.498 31.7973 136.652 31.3493 136.652 30.78V26.608H138.346V34H136.652V32.852C136.064 33.72 135.294 34.154 134.342 34.154ZM140.504 25.474V23.864H142.324V25.474H140.504ZM140.574 34V26.608H142.268V34H140.574ZM147.534 34.154C146.61 34.154 145.807 33.8087 145.126 33.118C144.445 32.418 144.104 31.4753 144.104 30.29C144.104 29.114 144.44 28.1807 145.112 27.49C145.793 26.7993 146.601 26.454 147.534 26.454C148.542 26.454 149.382 26.888 150.054 27.756V23.78H151.748V34H150.054V32.768C149.401 33.692 148.561 34.154 147.534 34.154ZM146.428 32.026C146.848 32.4647 147.352 32.684 147.94 32.684C148.528 32.684 149.032 32.46 149.452 32.012C149.872 31.564 150.082 30.99 150.082 30.29C150.082 29.5993 149.872 29.0347 149.452 28.596C149.032 28.148 148.528 27.924 147.94 27.924C147.343 27.924 146.839 28.1433 146.428 28.582C146.017 29.0113 145.812 29.59 145.812 30.318C145.812 31.018 146.017 31.5873 146.428 32.026ZM157.249 34.168C156.166 34.168 155.261 33.8087 154.533 33.09C153.814 32.3713 153.455 31.4427 153.455 30.304C153.455 29.2307 153.796 28.3207 154.477 27.574C155.158 26.8273 156.022 26.454 157.067 26.454C158.187 26.454 159.055 26.8367 159.671 27.602C160.296 28.358 160.609 29.3007 160.609 30.43C160.609 30.6353 160.6 30.794 160.581 30.906H155.149C155.242 31.494 155.48 31.956 155.863 32.292C156.246 32.6187 156.717 32.782 157.277 32.782C158.005 32.782 158.672 32.488 159.279 31.9L160.273 32.782C159.508 33.706 158.5 34.168 157.249 34.168ZM155.135 29.786H158.929C158.873 29.2167 158.682 28.75 158.355 28.386C158.028 28.022 157.594 27.84 157.053 27.84C156.54 27.84 156.11 28.022 155.765 28.386C155.42 28.7407 155.21 29.2073 155.135 29.786ZM162.408 34V23.78H164.102V34H162.408ZM166.344 25.474V23.864H168.164V25.474H166.344ZM166.414 34V26.608H168.108V34H166.414ZM170.322 34V26.608H172.016V27.756C172.604 26.888 173.374 26.454 174.326 26.454C175.147 26.454 175.791 26.7107 176.258 27.224C176.724 27.7373 176.958 28.428 176.958 29.296V34H175.264V29.8C175.264 29.2213 175.124 28.778 174.844 28.47C174.573 28.1527 174.186 27.994 173.682 27.994C173.187 27.994 172.786 28.1573 172.478 28.484C172.17 28.8107 172.016 29.2587 172.016 29.828V34H170.322ZM182.391 34.168C181.309 34.168 180.403 33.8087 179.675 33.09C178.957 32.3713 178.597 31.4427 178.597 30.304C178.597 29.2307 178.938 28.3207 179.619 27.574C180.301 26.8273 181.164 26.454 182.209 26.454C183.329 26.454 184.197 26.8367 184.813 27.602C185.439 28.358 185.751 29.3007 185.751 30.43C185.751 30.6353 185.742 30.794 185.723 30.906H180.291C180.385 31.494 180.623 31.956 181.005 32.292C181.388 32.6187 181.859 32.782 182.419 32.782C183.147 32.782 183.815 32.488 184.421 31.9L185.415 32.782C184.65 33.706 183.642 34.168 182.391 34.168ZM180.277 29.786H184.071C184.015 29.2167 183.824 28.75 183.497 28.386C183.171 28.022 182.737 27.84 182.195 27.84C181.682 27.84 181.253 28.022 180.907 28.386C180.562 28.7407 180.352 29.2073 180.277 29.786ZM189.987 34.14C188.829 34.14 187.784 33.7713 186.851 33.034L187.607 31.886C188.409 32.4927 189.217 32.796 190.029 32.796C190.393 32.796 190.673 32.726 190.869 32.586C191.074 32.4367 191.177 32.2313 191.177 31.97C191.177 31.8393 191.139 31.7273 191.065 31.634C190.999 31.5313 190.878 31.438 190.701 31.354C190.523 31.27 190.374 31.2093 190.253 31.172C190.131 31.1347 189.931 31.074 189.651 30.99L189.525 30.948C189.263 30.8733 189.039 30.8033 188.853 30.738C188.675 30.6633 188.475 30.5653 188.251 30.444C188.027 30.3227 187.845 30.192 187.705 30.052C187.565 29.9027 187.448 29.716 187.355 29.492C187.261 29.268 187.215 29.016 187.215 28.736C187.215 28.0547 187.462 27.5087 187.957 27.098C188.461 26.6873 189.091 26.482 189.847 26.482C190.808 26.482 191.713 26.762 192.563 27.322L191.891 28.526C191.125 28.0593 190.43 27.826 189.805 27.826C189.478 27.826 189.221 27.896 189.035 28.036C188.857 28.176 188.769 28.3627 188.769 28.596C188.769 28.7547 188.848 28.8993 189.007 29.03C189.175 29.1607 189.338 29.2587 189.497 29.324C189.665 29.38 189.931 29.4687 190.295 29.59C190.313 29.5993 190.337 29.6087 190.365 29.618C190.393 29.6273 190.416 29.632 190.435 29.632C190.761 29.7347 191.037 29.8373 191.261 29.94C191.485 30.0333 191.718 30.164 191.961 30.332C192.213 30.5 192.404 30.71 192.535 30.962C192.665 31.2047 192.731 31.4893 192.731 31.816C192.731 32.5627 192.474 33.1367 191.961 33.538C191.447 33.9393 190.789 34.14 189.987 34.14ZM199.028 34V28.064H198.09V26.65H199.028V26.118C199.028 25.2967 199.229 24.6853 199.63 24.284C200.022 23.892 200.577 23.696 201.296 23.696C201.772 23.696 202.229 23.7613 202.668 23.892V25.32C202.304 25.1987 201.973 25.138 201.674 25.138C201.021 25.138 200.694 25.5113 200.694 26.258V26.664H202.654V28.064H200.722V34H199.028ZM207.291 34.168C206.171 34.168 205.238 33.7947 204.491 33.048C203.744 32.3013 203.371 31.3913 203.371 30.318C203.371 29.2447 203.749 28.3347 204.505 27.588C205.261 26.832 206.199 26.454 207.319 26.454C208.439 26.454 209.372 26.8273 210.119 27.574C210.875 28.3207 211.253 29.2353 211.253 30.318C211.253 31.382 210.875 32.292 210.119 33.048C209.363 33.7947 208.42 34.168 207.291 34.168ZM207.319 32.698C207.991 32.698 208.532 32.4693 208.943 32.012C209.354 31.5547 209.559 30.99 209.559 30.318C209.559 29.6553 209.344 29.0953 208.915 28.638C208.486 28.1713 207.944 27.938 207.291 27.938C206.628 27.938 206.092 28.1667 205.681 28.624C205.27 29.0813 205.065 29.646 205.065 30.318C205.065 30.9713 205.28 31.5313 205.709 31.998C206.138 32.4647 206.675 32.698 207.319 32.698ZM212.978 34V26.608H214.672V28.274C215.195 27.014 216.067 26.412 217.29 26.468V28.26H217.192C216.427 28.26 215.815 28.512 215.358 29.016C214.901 29.5107 214.672 30.234 214.672 31.186V34H212.978ZM227.173 34.154C225.875 34.154 224.853 33.7853 224.107 33.048C223.369 32.3107 223.001 31.242 223.001 29.842V24.2H224.723V29.772C224.723 30.668 224.942 31.3587 225.381 31.844C225.819 32.3293 226.426 32.572 227.201 32.572C227.975 32.572 228.577 32.3387 229.007 31.872C229.445 31.4053 229.665 30.7287 229.665 29.842V24.2H231.387V29.758C231.387 31.186 231.013 32.278 230.267 33.034C229.52 33.7807 228.489 34.154 227.173 34.154ZM232.872 34L236.442 29.016L233.012 24.2H235.042L237.478 27.714L239.928 24.2H241.902L238.486 28.988L242.042 34H240.012L237.436 30.29L234.846 34H232.872ZM242.203 35.792L248.531 22.828H250.001L243.673 35.792H242.203ZM255.132 34.154C253.834 34.154 252.812 33.7853 252.066 33.048C251.328 32.3107 250.96 31.242 250.96 29.842V24.2H252.682V29.772C252.682 30.668 252.901 31.3587 253.34 31.844C253.778 32.3293 254.385 32.572 255.16 32.572C255.934 32.572 256.536 32.3387 256.966 31.872C257.404 31.4053 257.624 30.7287 257.624 29.842V24.2H259.346V29.758C259.346 31.186 258.972 32.278 258.226 33.034C257.479 33.7807 256.448 34.154 255.132 34.154ZM261.807 34V24.2H263.529V34H261.807ZM273.206 34.154C272.282 34.154 271.479 33.8087 270.798 33.118C270.117 32.418 269.776 31.4753 269.776 30.29C269.776 29.114 270.112 28.1807 270.784 27.49C271.465 26.7993 272.273 26.454 273.206 26.454C274.214 26.454 275.054 26.888 275.726 27.756V23.78H277.42V34H275.726V32.768C275.073 33.692 274.233 34.154 273.206 34.154ZM272.1 32.026C272.52 32.4647 273.024 32.684 273.612 32.684C274.2 32.684 274.704 32.46 275.124 32.012C275.544 31.564 275.754 30.99 275.754 30.29C275.754 29.5993 275.544 29.0347 275.124 28.596C274.704 28.148 274.2 27.924 273.612 27.924C273.015 27.924 272.511 28.1433 272.1 28.582C271.689 29.0113 271.484 29.59 271.484 30.318C271.484 31.018 271.689 31.5873 272.1 32.026ZM282.921 34.168C281.838 34.168 280.933 33.8087 280.205 33.09C279.486 32.3713 279.127 31.4427 279.127 30.304C279.127 29.2307 279.467 28.3207 280.149 27.574C280.83 26.8273 281.693 26.454 282.739 26.454C283.859 26.454 284.727 26.8367 285.343 27.602C285.968 28.358 286.281 29.3007 286.281 30.43C286.281 30.6353 286.271 30.794 286.253 30.906H280.821C280.914 31.494 281.152 31.956 281.535 32.292C281.917 32.6187 282.389 32.782 282.949 32.782C283.677 32.782 284.344 32.488 284.951 31.9L285.945 32.782C285.179 33.706 284.171 34.168 282.921 34.168ZM280.807 29.786H284.601C284.545 29.2167 284.353 28.75 284.027 28.386C283.7 28.022 283.266 27.84 282.725 27.84C282.211 27.84 281.782 28.022 281.437 28.386C281.091 28.7407 280.881 29.2073 280.807 29.786ZM290.516 34.14C289.359 34.14 288.313 33.7713 287.38 33.034L288.136 31.886C288.939 32.4927 289.746 32.796 290.558 32.796C290.922 32.796 291.202 32.726 291.398 32.586C291.603 32.4367 291.706 32.2313 291.706 31.97C291.706 31.8393 291.669 31.7273 291.594 31.634C291.529 31.5313 291.407 31.438 291.23 31.354C291.053 31.27 290.903 31.2093 290.782 31.172C290.661 31.1347 290.46 31.074 290.18 30.99L290.054 30.948C289.793 30.8733 289.569 30.8033 289.382 30.738C289.205 30.6633 289.004 30.5653 288.78 30.444C288.556 30.3227 288.374 30.192 288.234 30.052C288.094 29.9027 287.977 29.716 287.884 29.492C287.791 29.268 287.744 29.016 287.744 28.736C287.744 28.0547 287.991 27.5087 288.486 27.098C288.99 26.6873 289.62 26.482 290.376 26.482C291.337 26.482 292.243 26.762 293.092 27.322L292.42 28.526C291.655 28.0593 290.959 27.826 290.334 27.826C290.007 27.826 289.751 27.896 289.564 28.036C289.387 28.176 289.298 28.3627 289.298 28.596C289.298 28.7547 289.377 28.8993 289.536 29.03C289.704 29.1607 289.867 29.2587 290.026 29.324C290.194 29.38 290.46 29.4687 290.824 29.59C290.843 29.5993 290.866 29.6087 290.894 29.618C290.922 29.6273 290.945 29.632 290.964 29.632C291.291 29.7347 291.566 29.8373 291.79 29.94C292.014 30.0333 292.247 30.164 292.49 30.332C292.742 30.5 292.933 30.71 293.064 30.962C293.195 31.2047 293.26 31.4893 293.26 31.816C293.26 32.5627 293.003 33.1367 292.49 33.538C291.977 33.9393 291.319 34.14 290.516 34.14ZM295.01 25.474V23.864H296.83V25.474H295.01ZM295.08 34V26.608H296.774V34H295.08ZM302.278 36.268C301.046 36.268 299.944 35.974 298.974 35.386L299.604 34.112C300.444 34.6347 301.321 34.896 302.236 34.896C302.992 34.896 303.57 34.7 303.972 34.308C304.373 33.9253 304.574 33.3653 304.574 32.628V32.054C303.874 32.9593 303.006 33.412 301.97 33.412C301.055 33.412 300.266 33.0947 299.604 32.46C298.941 31.8253 298.61 30.9807 298.61 29.926C298.61 28.8807 298.941 28.0407 299.604 27.406C300.276 26.7713 301.064 26.454 301.97 26.454C302.996 26.454 303.86 26.874 304.56 27.714V26.608H306.254V32.488C306.254 33.72 305.941 34.6487 305.316 35.274C304.653 35.9367 303.64 36.268 302.278 36.268ZM302.418 31.984C303.015 31.984 303.524 31.7927 303.944 31.41C304.373 31.018 304.588 30.5233 304.588 29.926C304.588 29.3287 304.373 28.8387 303.944 28.456C303.524 28.0733 303.015 27.882 302.418 27.882C301.82 27.882 301.321 28.0733 300.92 28.456C300.518 28.8293 300.318 29.324 300.318 29.94C300.318 30.5373 300.518 31.0273 300.92 31.41C301.33 31.7927 301.83 31.984 302.418 31.984ZM308.367 34V26.608H310.061V27.756C310.649 26.888 311.419 26.454 312.371 26.454C313.192 26.454 313.836 26.7107 314.303 27.224C314.769 27.7373 315.003 28.428 315.003 29.296V34H313.309V29.8C313.309 29.2213 313.169 28.778 312.889 28.47C312.618 28.1527 312.231 27.994 311.727 27.994C311.232 27.994 310.831 28.1573 310.523 28.484C310.215 28.8107 310.061 29.2587 310.061 29.828V34H308.367ZM320.436 34.168C319.354 34.168 318.448 33.8087 317.72 33.09C317.002 32.3713 316.642 31.4427 316.642 30.304C316.642 29.2307 316.983 28.3207 317.664 27.574C318.346 26.8273 319.209 26.454 320.254 26.454C321.374 26.454 322.242 26.8367 322.858 27.602C323.484 28.358 323.796 29.3007 323.796 30.43C323.796 30.6353 323.787 30.794 323.768 30.906H318.336C318.43 31.494 318.668 31.956 319.05 32.292C319.433 32.6187 319.904 32.782 320.464 32.782C321.192 32.782 321.86 32.488 322.466 31.9L323.46 32.782C322.695 33.706 321.687 34.168 320.436 34.168ZM318.322 29.786H322.116C322.06 29.2167 321.869 28.75 321.542 28.386C321.216 28.022 320.782 27.84 320.24 27.84C319.727 27.84 319.298 28.022 318.952 28.386C318.607 28.7407 318.397 29.2073 318.322 29.786ZM325.498 34V26.608H327.192V28.274C327.714 27.014 328.587 26.412 329.81 26.468V28.26H329.712C328.946 28.26 328.335 28.512 327.878 29.016C327.42 29.5107 327.192 30.234 327.192 31.186V34H325.498ZM333.815 34.14C332.657 34.14 331.612 33.7713 330.679 33.034L331.435 31.886C332.237 32.4927 333.045 32.796 333.857 32.796C334.221 32.796 334.501 32.726 334.697 32.586C334.902 32.4367 335.005 32.2313 335.005 31.97C335.005 31.8393 334.967 31.7273 334.893 31.634C334.827 31.5313 334.706 31.438 334.529 31.354C334.351 31.27 334.202 31.2093 334.081 31.172C333.959 31.1347 333.759 31.074 333.479 30.99L333.353 30.948C333.091 30.8733 332.867 30.8033 332.681 30.738C332.503 30.6633 332.303 30.5653 332.079 30.444C331.855 30.3227 331.673 30.192 331.533 30.052C331.393 29.9027 331.276 29.716 331.183 29.492C331.089 29.268 331.043 29.016 331.043 28.736C331.043 28.0547 331.29 27.5087 331.785 27.098C332.289 26.6873 332.919 26.482 333.675 26.482C334.636 26.482 335.541 26.762 336.391 27.322L335.719 28.526C334.953 28.0593 334.258 27.826 333.633 27.826C333.306 27.826 333.049 27.896 332.863 28.036C332.685 28.176 332.597 28.3627 332.597 28.596C332.597 28.7547 332.676 28.8993 332.835 29.03C333.003 29.1607 333.166 29.2587 333.325 29.324C333.493 29.38 333.759 29.4687 334.123 29.59C334.141 29.5993 334.165 29.6087 334.193 29.618C334.221 29.6273 334.244 29.632 334.263 29.632C334.589 29.7347 334.865 29.8373 335.089 29.94C335.313 30.0333 335.546 30.164 335.789 30.332C336.041 30.5 336.232 30.71 336.363 30.962C336.493 31.2047 336.559 31.4893 336.559 31.816C336.559 32.5627 336.302 33.1367 335.789 33.538C335.275 33.9393 334.617 34.14 333.815 34.14Z" fill="#181818"/>
<path d="M78.04 56V49H80.58C81.36 49 81.9867 49.1933 82.46 49.58C82.94 49.96 83.18 50.4867 83.18 51.16C83.18 51.8667 82.9167 52.4167 82.39 52.81C81.87 53.1967 81.2233 53.39 80.45 53.39H78.56V56H78.04ZM78.56 52.91H80.48C81.1333 52.91 81.66 52.7533 82.06 52.44C82.46 52.12 82.66 51.6967 82.66 51.17C82.66 50.63 82.4667 50.2133 82.08 49.92C81.7 49.6267 81.1867 49.48 80.54 49.48H78.56V52.91ZM84.7197 56V49H87.0497C88.143 49 89.0364 49.3333 89.7297 50C90.423 50.66 90.7697 51.4933 90.7697 52.5C90.7697 53.5 90.4197 54.3333 89.7197 55C89.0264 55.6667 88.1364 56 87.0497 56H84.7197ZM85.2397 55.52H87.0497C88.003 55.52 88.7697 55.2333 89.3497 54.66C89.9364 54.0867 90.2297 53.3667 90.2297 52.5C90.2297 51.6467 89.9364 50.93 89.3497 50.35C88.7697 49.77 88.003 49.48 87.0497 49.48H85.2397V55.52ZM92.542 56V49H97.472V49.48H93.062V52.35H97.022V52.83H93.062V56H92.542ZM102.293 56V51.35H101.553V50.9H102.293V50.4C102.293 49.8133 102.443 49.37 102.743 49.07C103.009 48.8033 103.366 48.67 103.813 48.67C104.086 48.67 104.339 48.71 104.573 48.79V49.25C104.293 49.1633 104.039 49.12 103.813 49.12C103.126 49.12 102.783 49.55 102.783 50.41V50.9H104.563V51.35H102.783V56H102.293ZM105.683 56V50.9H106.173V56H105.683ZM105.623 49.57V48.9H106.233V49.57H105.623ZM108.176 56V48.7H108.666V56H108.176ZM112.746 56.12C112.059 56.12 111.469 55.87 110.976 55.37C110.489 54.87 110.246 54.2267 110.246 53.44C110.246 52.6933 110.476 52.0633 110.936 51.55C111.403 51.0367 111.979 50.78 112.666 50.78C113.366 50.78 113.929 51.0333 114.356 51.54C114.789 52.0467 115.006 52.6833 115.006 53.45C115.006 53.53 115.003 53.5967 114.996 53.65H110.766C110.813 54.2633 111.026 54.7533 111.406 55.12C111.793 55.48 112.246 55.66 112.766 55.66C113.433 55.66 114.016 55.3933 114.516 54.86L114.856 55.16C114.263 55.8 113.559 56.12 112.746 56.12ZM110.766 53.21H114.476C114.436 52.65 114.259 52.18 113.946 51.8C113.633 51.42 113.199 51.23 112.646 51.23C112.146 51.23 111.719 51.42 111.366 51.8C111.013 52.1733 110.813 52.6433 110.766 53.21ZM116.058 57.07L115.938 56.82C116.312 56.6333 116.498 56.39 116.498 56.09V56H116.228V55.15H116.888V55.89C116.888 56.2033 116.825 56.45 116.698 56.63C116.572 56.81 116.358 56.9567 116.058 57.07ZM123.821 56.12C122.754 56.12 121.898 55.7 121.251 54.86L121.651 54.53C122.238 55.2767 122.964 55.65 123.831 55.65C124.318 55.65 124.728 55.5033 125.061 55.21C125.394 54.9167 125.561 54.54 125.561 54.08C125.561 53.6 125.358 53.2267 124.951 52.96C124.551 52.6933 124.028 52.56 123.381 52.56H123.001L122.871 52.27L125.281 49.49H121.611V49H125.991V49.37L123.621 52.08C123.934 52.1 124.228 52.1533 124.501 52.24C124.781 52.32 125.044 52.4367 125.291 52.59C125.538 52.7367 125.734 52.94 125.881 53.2C126.028 53.4533 126.101 53.7467 126.101 54.08C126.101 54.6733 125.874 55.1633 125.421 55.55C124.974 55.93 124.441 56.12 123.821 56.12ZM127.294 56V55.61L129.904 53.25C130.484 52.7233 130.888 52.2867 131.114 51.94C131.341 51.5867 131.454 51.2267 131.454 50.86C131.454 50.42 131.298 50.06 130.984 49.78C130.678 49.5 130.308 49.36 129.874 49.36C129.448 49.36 129.074 49.4667 128.754 49.68C128.441 49.8933 128.131 50.22 127.824 50.66L127.434 50.4C127.768 49.8933 128.121 49.5167 128.494 49.27C128.868 49.0233 129.344 48.9 129.924 48.9C130.518 48.9 131.011 49.0867 131.404 49.46C131.804 49.8267 132.004 50.2867 132.004 50.84C132.004 51.3 131.874 51.72 131.614 52.1C131.361 52.48 130.908 52.9667 130.254 53.56L128.114 55.5H132.074V56H127.294ZM136.86 56V54.29H133.07L132.89 53.9L136.89 48.95H137.36V53.84H138.5V54.29H137.36V56H136.86ZM133.52 53.84H136.86V49.7L133.52 53.84ZM142.979 56V48.7H143.469V54.17L146.629 50.9H147.279L145.049 53.16L147.349 56H146.729L144.709 53.51L143.469 54.76V56H142.979ZM151.165 56.12C150.298 56.12 149.598 55.7133 149.065 54.9V56H148.575V48.7H149.065V52.04C149.618 51.2 150.318 50.78 151.165 50.78C151.818 50.78 152.395 51.0267 152.895 51.52C153.395 52.0067 153.645 52.65 153.645 53.45C153.645 54.2433 153.395 54.8867 152.895 55.38C152.395 55.8733 151.818 56.12 151.165 56.12ZM151.115 55.65C151.688 55.65 152.165 55.4533 152.545 55.06C152.925 54.66 153.115 54.1233 153.115 53.45C153.115 52.7967 152.918 52.2667 152.525 51.86C152.138 51.4533 151.668 51.25 151.115 51.25C150.561 51.25 150.075 51.46 149.655 51.88C149.241 52.2933 149.035 52.82 149.035 53.46C149.035 54.0933 149.241 54.6167 149.655 55.03C150.075 55.4433 150.561 55.65 151.115 55.65Z" fill="#181818"/>
<rect x="20" y="19" width="42" height="42" rx="21" fill="url(#paint0_linear_1_382)"/>
<path d="M43.0001 30.0001H35.0001C34.4697 30.0001 33.961 30.2108 33.5859 30.5859C33.2108 30.961 33.0001 31.4697 33.0001 32.0001V48.0001C33.0001 48.5306 33.2108 49.0393 33.5859 49.4143C33.961 49.7894 34.4697 50.0001 35.0001 50.0001H47.0001C47.5306 50.0001 48.0393 49.7894 48.4143 49.4143C48.7894 49.0393 49.0001 48.5306 49.0001 48.0001V36.0001L43.0001 30.0001Z" stroke="white" stroke-linecap="round" stroke-linejoin="round"/>
<path d="M42.9999 30.0001V36.0001H48.9999" stroke="white" stroke-linecap="round" stroke-linejoin="round"/>
<path d="M44.9999 40.9999H36.9999" stroke="white" stroke-linecap="round" stroke-linejoin="round"/>
<path d="M44.9999 45.0001H36.9999" stroke="white" stroke-linecap="round" stroke-linejoin="round"/>
<path d="M38.9999 37H37.9999H36.9999" stroke="white" stroke-linecap="round" stroke-linejoin="round"/>
<defs>
<linearGradient id="paint0_linear_1_382" x1="41" y1="19" x2="41" y2="61" gradientUnits="userSpaceOnUse">
<stop stop-color="#0077B5"/>
<stop offset="1" stop-color="#0E6795"/>
</linearGradient>
<clipPath id="clip0_1_382">
<rect width="24" height="24" fill="white" transform="translate(736 28)"/>
</clipPath>
</defs>
</svg>
